<svg width="90" height="90" viewBox="0 0 90 90" fill="none" xmlns="http://www.w3.org/2000/svg">
    <path d="M53.5321 22.8001C57.4373 18.8949 63.7689 18.8949 67.6742 22.8001L82.6771 37.803C86.5823 41.7083 86.5823 48.0399 82.6771 51.9452L44.8741 89.7482L15.729 60.6032L53.5321 22.8001Z" fill="#495464"/>
    <path d="M7.07107 51.9452C3.16582 48.04 3.16582 41.7083 7.07107 37.8031L22.0739 22.8002C25.9792 18.8949 32.3108 18.8949 36.2161 22.8002L74.0191 60.6032L44.8741 89.7482L7.07107 51.9452Z" fill="#495464"/>
    <path d="M25.3891 48.5839C25.8379 49.0327 26.1217 49.5409 26.2405 50.1084C26.3725 50.676 26.3461 51.2568 26.1613 51.8507C25.9831 52.4381 25.6432 52.9826 25.1416 53.4842C24.6401 53.9857 24.0923 54.3289 23.4983 54.5137C22.9043 54.6985 22.3203 54.7282 21.7461 54.6028C21.1719 54.4774 20.6671 54.1969 20.2315 53.7613C20.0005 53.5304 19.8124 53.2763 19.6672 52.9991C19.5352 52.7219 19.4428 52.4381 19.39 52.1477C19.3372 51.8573 19.324 51.567 19.3504 51.2766C19.3834 50.9796 19.456 50.6958 19.5682 50.4252L19.8751 50.4747L16.7964 53.5535C16.7172 53.6327 16.6182 53.6723 16.4994 53.6723C16.3872 53.6789 16.2882 53.6393 16.2024 53.5535C16.1166 53.4677 16.0737 53.3654 16.0737 53.2466C16.0803 53.1344 16.1232 53.0387 16.2024 52.9595L22.6569 46.505C22.7426 46.4192 22.8416 46.373 22.9538 46.3664C23.066 46.3598 23.1683 46.4027 23.2607 46.4951C23.3465 46.5809 23.3861 46.6799 23.3795 46.7921C23.3795 46.9109 23.3366 47.0132 23.2508 47.099L22.1817 48.1681L22.1223 47.9503C22.3929 47.8117 22.6701 47.726 22.9538 47.693C23.2508 47.66 23.5412 47.6732 23.825 47.7326C24.1154 47.7853 24.3926 47.8843 24.6566 48.0295C24.9205 48.1747 25.1647 48.3595 25.3891 48.5839ZM24.7852 49.0888C24.4289 48.7324 24.0263 48.508 23.5775 48.4156C23.1353 48.3166 22.6833 48.3397 22.2213 48.4849C21.7725 48.6301 21.3501 48.9007 20.9541 49.2967C20.5648 49.6861 20.2909 50.1117 20.1325 50.5737C19.9807 51.0423 19.951 51.501 20.0434 51.9497C20.1424 52.3919 20.3701 52.7912 20.7265 53.1476C21.0762 53.4974 21.4689 53.7184 21.9045 53.8108C22.3533 53.9032 22.8119 53.8735 23.2805 53.7217C23.7491 53.57 24.1781 53.2994 24.5675 52.91C24.9568 52.5206 25.2241 52.0949 25.3693 51.633C25.5145 51.171 25.5376 50.7189 25.4386 50.2767C25.3528 49.8345 25.135 49.4386 24.7852 49.0888ZM23.9878 57.3791C23.8954 57.2867 23.8525 57.1844 23.8591 57.0722C23.8657 56.96 23.9086 56.8643 23.9878 56.7851L28.4228 52.3501C28.502 52.2709 28.5977 52.228 28.7099 52.2214C28.8286 52.2214 28.9309 52.2643 29.0167 52.3501C29.1025 52.4359 29.1421 52.5349 29.1355 52.6471C29.1355 52.7659 29.0959 52.8649 29.0167 52.9441L27.5318 54.429L27.3536 54.3102C27.6044 54.099 27.8882 53.9274 28.205 53.7954C28.535 53.6635 28.8781 53.5843 29.2345 53.5579C29.5909 53.5315 29.9407 53.5711 30.2839 53.6767C30.6337 53.7888 30.9504 53.9868 31.2342 54.2706C31.353 54.3894 31.4421 54.5313 31.5015 54.6963C31.5675 54.8547 31.5444 54.99 31.4322 55.1022C31.3332 55.2012 31.2309 55.2507 31.1253 55.2507C31.0197 55.2507 30.9306 55.2144 30.858 55.1418C30.7986 55.0824 30.7491 54.9999 30.7096 54.8943C30.6766 54.7953 30.604 54.6897 30.4918 54.5775C30.307 54.3927 30.0661 54.264 29.7691 54.1914C29.4787 54.1122 29.1652 54.0891 28.8286 54.1221C28.4921 54.1551 28.1621 54.2409 27.8387 54.3795C27.5285 54.5181 27.2579 54.7029 27.0269 54.9339L24.5818 57.3791C24.5026 57.4583 24.4036 57.4979 24.2848 57.4979C24.166 57.4979 24.067 57.4583 23.9878 57.3791ZM29.2672 62.8565C28.7591 62.3483 28.4192 61.7907 28.2476 61.1835C28.076 60.5763 28.076 59.9692 28.2476 59.362C28.4192 58.7548 28.7657 58.1905 29.287 57.6692C29.848 57.1082 30.4354 56.7386 31.0491 56.5604C31.6695 56.3888 32.2602 56.3723 32.8212 56.5109C33.3953 56.6495 33.8804 56.9168 34.2764 57.3128C34.5668 57.6032 34.7945 57.9365 34.9594 58.3126C35.1376 58.6888 35.23 59.0848 35.2366 59.5006C35.2564 59.9164 35.1838 60.3321 35.0188 60.7479C34.8605 61.1703 34.5965 61.5795 34.2269 61.9754C34.1411 62.048 34.0388 62.0843 33.92 62.0843C33.8078 62.0777 33.7121 62.0348 33.6329 61.9556L29.6632 57.986L30.079 57.3326L33.9794 61.233L33.7319 61.2231L33.9299 61.0251C34.2137 60.6885 34.3787 60.3255 34.4249 59.9361C34.4711 59.5468 34.4282 59.1739 34.2962 58.8175C34.1642 58.4611 33.9662 58.1509 33.7022 57.887C33.5042 57.689 33.26 57.524 32.9697 57.392C32.6859 57.2666 32.3724 57.2039 32.0292 57.2039C31.6992 57.2039 31.3494 57.2831 30.9799 57.4415C30.6169 57.5933 30.2572 57.8474 29.9008 58.2037C29.5114 58.5931 29.2375 59.0254 29.0791 59.5006C28.9208 59.9757 28.8977 60.4542 29.0099 60.936C29.1286 61.4244 29.3959 61.8765 29.8117 62.2922C30.0427 62.5232 30.2836 62.6981 30.5344 62.8169C30.7852 62.9357 31.0327 63.0116 31.2768 63.0446C31.5276 63.071 31.7586 63.071 31.9698 63.0446C32.1018 63.0578 32.2041 63.1007 32.2767 63.1733C32.3427 63.2393 32.3724 63.3218 32.3658 63.4208C32.3658 63.5264 32.3328 63.6122 32.2668 63.6782C32.1876 63.7574 32.0853 63.7937 31.9599 63.7871C31.5243 63.8267 31.059 63.7772 30.5641 63.6386C30.0757 63.4934 29.6434 63.2327 29.2672 62.8565ZM39.8541 63.0488C40.2632 63.458 40.5041 63.9167 40.5767 64.4249C40.6559 64.9264 40.5371 65.4412 40.2203 65.9692L40.0421 65.8702L40.2797 65.7514C40.5635 65.6392 40.8902 65.5963 41.2598 65.6227C41.6426 65.6491 42.0154 65.7382 42.3784 65.89C42.7414 66.0418 43.0549 66.2497 43.3189 66.5137C43.7347 66.9294 43.9788 67.3518 44.0514 67.7808C44.1306 68.2164 44.0745 68.6421 43.8831 69.0578C43.705 69.4736 43.4278 69.8696 43.0516 70.2458L40.25 73.0473C40.1708 73.1265 40.0718 73.1661 39.953 73.1661C39.8409 73.1727 39.7419 73.1331 39.6561 73.0473C39.5703 72.9615 39.5274 72.8592 39.5274 72.7404C39.534 72.6283 39.5769 72.5326 39.6561 72.4534L42.4279 69.6815C42.6985 69.4109 42.9031 69.1205 43.0417 68.8103C43.1803 68.5002 43.2232 68.1867 43.1704 67.8699C43.1176 67.5531 42.9361 67.2396 42.6259 66.9294C42.3553 66.6589 42.0286 66.4642 41.6459 66.3454C41.2697 66.2332 40.8902 66.2101 40.5074 66.2761C40.1312 66.3487 39.8079 66.5203 39.5373 66.7909L36.7654 69.5627C36.6862 69.6419 36.5872 69.6815 36.4684 69.6815C36.3562 69.6881 36.2572 69.6485 36.1714 69.5627C36.0856 69.4769 36.0427 69.3746 36.0427 69.2558C36.0493 69.1436 36.0922 69.0479 36.1714 68.9687L38.973 66.1672C39.2436 65.8966 39.4482 65.6128 39.5868 65.3158C39.7254 65.0188 39.7683 64.7186 39.7155 64.415C39.6693 64.1048 39.4944 63.7979 39.1908 63.4943C38.9202 63.2237 38.5968 63.0323 38.2206 62.9202C37.8577 62.808 37.4914 62.7849 37.1218 62.8509C36.7588 62.9235 36.442 63.095 36.1714 63.3656L33.3699 66.1672C33.2907 66.2464 33.1917 66.286 33.0729 66.286C32.9541 66.286 32.8551 66.2464 32.7759 66.1672C32.6835 66.0748 32.6406 65.9725 32.6472 65.8603C32.6538 65.7481 32.6967 65.6524 32.7759 65.5732L37.2109 61.1382C37.2901 61.059 37.3858 61.0161 37.498 61.0095C37.6168 61.0095 37.7191 61.0524 37.8049 61.1382C37.8907 61.224 37.9303 61.323 37.9237 61.4352C37.9237 61.554 37.8841 61.653 37.8049 61.7322L36.8842 62.6529L36.2506 62.7519C36.4684 62.5737 36.7291 62.4384 37.0327 62.346C37.3429 62.2602 37.6663 62.2272 38.0028 62.247C38.3394 62.2668 38.6661 62.3427 38.9829 62.4747C39.3129 62.6067 39.6033 62.7981 39.8541 63.0488ZM48.5568 76.8795C48.0552 77.3811 47.4942 77.7243 46.8739 77.9091C46.2601 78.0873 45.6496 78.1038 45.0425 77.9586C44.4419 77.8068 43.9007 77.49 43.419 77.0082C42.9504 76.5396 42.6369 76.0018 42.4785 75.3946C42.3333 74.7874 42.3465 74.1737 42.5181 73.5533C42.7029 72.9329 43.0461 72.372 43.5477 71.8704C44.0558 71.3622 44.6168 71.019 45.2306 70.8408C45.8509 70.6692 46.4647 70.656 47.0719 70.8012C47.6856 70.953 48.2268 71.2632 48.6954 71.7318C49.1772 72.2136 49.4906 72.758 49.6358 73.3652C49.781 73.9724 49.7645 74.5828 49.5863 75.1966C49.4082 75.8104 49.065 76.3713 48.5568 76.8795ZM47.9628 76.2856C48.3654 75.883 48.6393 75.4441 48.7845 74.9689C48.9363 74.4871 48.9561 74.012 48.8439 73.5434C48.7449 73.0748 48.5106 72.6557 48.141 72.2862C47.7846 71.9298 47.3689 71.6988 46.8937 71.5932C46.4251 71.481 45.9466 71.4975 45.4583 71.6427C44.9831 71.7879 44.5442 72.0618 44.1416 72.4643C43.739 72.8669 43.4652 73.3058 43.32 73.781C43.1814 74.2628 43.1649 74.7412 43.2705 75.2164C43.3827 75.685 43.6169 76.0975 43.9733 76.4538C44.3429 76.8234 44.7587 77.061 45.2207 77.1666C45.6958 77.2722 46.171 77.2524 46.6462 77.1072C47.1214 76.962 47.5602 76.6881 47.9628 76.2856Z" fill="#F4F4F2"/>
    <path d="M31.4308 42.4672C31.8795 42.916 32.1633 43.4241 32.2821 43.9917C32.4075 44.5659 32.3745 45.1532 32.1831 45.7538C31.9983 46.3478 31.6486 46.9021 31.1338 47.4169C30.6322 47.9185 30.0778 48.2683 29.4707 48.4663C28.8635 48.6643 28.2695 48.7039 27.6888 48.5851C27.108 48.4663 26.5998 48.1891 26.1642 47.7535C25.9333 47.5225 25.7485 47.2651 25.6099 46.9813C25.4779 46.7042 25.3855 46.4204 25.3327 46.13C25.2865 45.833 25.2799 45.536 25.3129 45.239C25.3459 44.9421 25.4185 44.6583 25.5307 44.3877L25.8376 44.4372L24.7189 45.5558C24.6331 45.6416 24.5308 45.6845 24.412 45.6845C24.3064 45.6845 24.2107 45.6416 24.1249 45.5558C24.0391 45.47 23.993 45.371 23.9864 45.2588C23.993 45.1466 24.0391 45.0476 24.1249 44.9618L30.8665 38.2203C30.9523 38.1345 31.048 38.0916 31.1536 38.0916C31.2658 38.085 31.3681 38.1279 31.4605 38.2203C31.5463 38.3061 31.5859 38.4051 31.5793 38.5173C31.5859 38.6295 31.5463 38.7285 31.4605 38.8143L28.1441 42.1306L28.0847 41.9128C28.3553 41.7742 28.6358 41.6851 28.9262 41.6455C29.2298 41.6059 29.5301 41.6092 29.8271 41.6554C30.124 41.7016 30.4078 41.794 30.6784 41.9326C30.9556 42.0646 31.2064 42.2428 31.4308 42.4672ZM30.8269 42.972C30.4705 42.6157 30.0679 42.3913 29.6192 42.2989C29.1704 42.2065 28.7117 42.2362 28.2431 42.388C27.7812 42.5464 27.3489 42.8269 26.9463 43.2294C26.5503 43.6254 26.2665 44.061 26.0949 44.5362C25.9366 45.0113 25.9003 45.4766 25.9861 45.932C26.0784 46.3808 26.3028 46.7834 26.6592 47.1397C27.009 47.4895 27.4083 47.704 27.8571 47.7832C28.3124 47.869 28.7777 47.8327 29.2529 47.6743C29.7347 47.5093 30.1702 47.2321 30.5596 46.8428C30.9622 46.4402 31.2394 46.0046 31.3912 45.536C31.543 45.0674 31.5727 44.6088 31.4803 44.16C31.3945 43.7178 31.1767 43.3218 30.8269 42.972ZM36.8997 53.2224C36.3981 53.724 35.8372 54.0672 35.2168 54.252C34.603 54.4302 33.9926 54.4467 33.3854 54.3015C32.7848 54.1497 32.2436 53.8329 31.7619 53.3511C31.2933 52.8826 30.9798 52.3447 30.8214 51.7375C30.6762 51.1303 30.6894 50.5166 30.861 49.8962C31.0458 49.2758 31.389 48.7149 31.8906 48.2133C32.3987 47.7051 32.9597 47.3619 33.5735 47.1837C34.1938 47.0122 34.8076 46.999 35.4148 47.1441C36.0285 47.2959 36.5697 47.6061 37.0383 48.0747C37.5201 48.5565 37.8336 49.1009 37.9787 49.7081C38.1239 50.3153 38.1074 50.9257 37.9292 51.5395C37.7511 52.1533 37.4079 52.7143 36.8997 53.2224ZM36.3057 52.6285C36.7083 52.2259 36.9822 51.787 37.1274 51.3118C37.2792 50.8301 37.299 50.3549 37.1868 49.8863C37.0878 49.4177 36.8535 48.9986 36.4839 48.6291C36.1275 48.2727 35.7118 48.0417 35.2366 47.9361C34.768 47.8239 34.2895 47.8404 33.8012 47.9856C33.326 48.1308 32.8871 48.4047 32.4845 48.8073C32.0819 49.2098 31.8081 49.6487 31.6629 50.1239C31.5243 50.6057 31.5078 51.0841 31.6134 51.5593C31.7256 52.0279 31.9599 52.4404 32.3162 52.7968C32.6858 53.1663 33.1016 53.4039 33.5636 53.5095C34.0387 53.6151 34.5139 53.5953 34.9891 53.4501C35.4643 53.3049 35.9032 53.031 36.3057 52.6285ZM42.993 54.0294C43.4286 54.465 43.686 54.9005 43.7652 55.3361C43.8576 55.7717 43.8081 56.1974 43.6167 56.6132C43.4385 57.0289 43.1679 57.4183 42.8049 57.7813L39.8945 60.6918C39.8153 60.771 39.7163 60.8105 39.5975 60.8105C39.4787 60.8105 39.3797 60.771 39.3005 60.6918C39.2081 60.5994 39.1652 60.4971 39.1718 60.3849C39.1784 60.2727 39.2213 60.177 39.3005 60.0978L42.1812 57.217C42.4452 56.953 42.6432 56.6693 42.7752 56.3657C42.9072 56.0621 42.9402 55.7453 42.8742 55.4153C42.8148 55.0919 42.6267 54.7719 42.3099 54.4551C42.0261 54.1713 41.6896 53.9667 41.3002 53.8413C40.9174 53.7225 40.5379 53.6928 40.1617 53.7522C39.7856 53.8116 39.4655 53.9733 39.2015 54.2373L36.3207 57.118C36.2415 57.1972 36.1425 57.2368 36.0238 57.2368C35.905 57.2368 35.806 57.1972 35.7268 57.118C35.6344 57.0256 35.5915 56.9233 35.5981 56.8112C35.6047 56.699 35.6476 56.6033 35.7268 56.5241L40.1617 52.0891C40.2409 52.0099 40.3366 51.967 40.4488 51.9604C40.5676 51.9604 40.6699 52.0033 40.7557 52.0891C40.8415 52.1749 40.8811 52.2739 40.8745 52.3861C40.8745 52.5049 40.8349 52.6039 40.7557 52.6831L39.9242 53.5146L39.3401 53.6433C39.5645 53.4453 39.8318 53.31 40.1419 53.2374C40.4653 53.1648 40.7986 53.1483 41.1418 53.1879C41.4916 53.2209 41.8249 53.31 42.1416 53.4552C42.4716 53.6004 42.7554 53.7918 42.993 54.0294ZM50.1615 61.4355C50.2473 61.5212 50.2869 61.6202 50.2803 61.7324C50.2803 61.8512 50.2374 61.9535 50.1516 62.0393L45.6968 66.4941C45.6176 66.5733 45.5186 66.6129 45.3998 66.6129C45.281 66.6129 45.182 66.5733 45.1028 66.4941C45.017 66.4083 44.9741 66.306 44.9741 66.1872C44.9807 66.075 45.0236 65.9793 45.1028 65.9001L46.2809 64.7221L46.5284 64.8112C46.3436 64.996 46.1027 65.1313 45.8057 65.2171C45.5153 65.3095 45.1985 65.3491 44.8553 65.3359C44.5122 65.3227 44.1657 65.2468 43.8159 65.1082C43.4793 64.9696 43.1724 64.7617 42.8952 64.4845C42.4465 64.0357 42.1594 63.5176 42.034 62.9303C41.9152 62.3495 41.9548 61.7555 42.1528 61.1484C42.3574 60.5478 42.7104 59.9967 43.212 59.4952C43.7268 58.9804 44.2812 58.6306 44.8751 58.4458C45.4757 58.2544 46.0631 58.2214 46.6372 58.3468C47.2114 58.4722 47.7196 58.756 48.1618 59.1982C48.4456 59.482 48.66 59.7954 48.8052 60.1386C48.957 60.4884 49.0395 60.8415 49.0527 61.1979C49.0659 61.5542 49.0098 61.8941 48.8844 62.2175C48.7722 62.5409 48.5973 62.8214 48.3598 63.059L48.3004 62.7026L49.5576 61.4454C49.6434 61.3596 49.7424 61.3134 49.8546 61.3068C49.9734 61.3068 50.0757 61.3497 50.1615 61.4355ZM43.4991 63.9796C43.8489 64.3294 44.2482 64.5505 44.6969 64.6429C45.1523 64.7287 45.6143 64.6891 46.0829 64.5241C46.5647 64.3591 47.0035 64.0786 47.3995 63.6826C47.7889 63.2933 48.0595 62.8643 48.2113 62.3957C48.3697 61.9337 48.406 61.475 48.3202 61.0197C48.2344 60.5643 48.0166 60.1617 47.6668 59.8119C47.3236 59.4688 46.9243 59.2477 46.469 59.1487C46.0202 59.0563 45.5615 59.086 45.0929 59.2378C44.6309 59.3962 44.1987 59.6766 43.7961 60.0792C43.4001 60.4752 43.1163 60.9108 42.9447 61.386C42.7863 61.8611 42.75 62.3264 42.8358 62.7818C42.9282 63.2306 43.1493 63.6298 43.4991 63.9796Z" fill="#F4F4F2"/>
</svg>
